PathFileType	4	(X/Y/Z)	D:\Long Term Storage\D'Arcy Smith\Coord7.trc
DataRate	CameraRate	NumFrames	NumMarkers	Units	OrigDataRate	OrigDataStartFrame	OrigNumFrames
120.00	120.00	      146	4	mm	120.00	1215	      4859
Frame#	Time	M1			M2			M3			M4			
		X1	Y1	Z1	X2	Y2	Z2	X3	Y3	Z3	X4	Y4	Z4	

1215	10.117	1072.98999	321.14420	530.83405	1575.95679	280.76559	417.07578							
1216	10.125	1076.02161	321.89536	516.38165	1578.27588	278.27222	427.64651							
1217	10.133	1079.50562	322.89380	504.25089	1580.85779	275.72244	439.25470							
1218	10.142	1083.44495	324.24643	490.14828	1583.50549	273.18396	451.18030							
1219	10.150	1087.21350	325.84241	475.05750	1586.20752	271.69330	464.30289							
1220	10.158	1091.34985	327.99277	459.76981	1588.86475	271.00699	477.81720							
1221	10.167	1095.55554	330.26691	445.49954	1591.78369	270.32361	491.85602							
1222	10.175	1100.04028	333.87955	428.79034	1594.81042	270.16119	506.63968							
1223	10.183	1104.43311	337.71118	412.35397	1597.34277	271.08615	522.03638							
1224	10.192	1108.94580	342.06659	395.59372	1600.29260	272.62686	537.64178							
1225	10.200	1113.49866	346.52496	378.28485	1602.94836	274.93652	553.19061							
1226	10.208	1118.19360	351.65277	363.08685	1605.33447	278.26129	568.67816							
1227	10.217	1122.59692	357.99496	346.50732	1607.74036	282.22894	584.32343							
1228	10.225	1126.76282	364.53564	331.29236	1609.91016	287.03400	599.27319							
1229	10.233	1130.60767	371.57111	315.99994	1611.94153	292.49576	613.96716							
1230	10.242	1134.11279	378.84402	301.50638	1613.95093	298.71484	628.07910							
1231	10.250	1137.26050	386.50983	287.93610	1615.80615	305.52701	641.46991							
1232	10.258	1139.52869	394.76172	274.35706	1617.18677	312.40790	654.97156							
1233	10.267	1141.81372	402.11255	262.97116	1618.77771	319.87616	667.59399							
1234	10.275	1143.09265	409.85849	250.61523	1620.25647	327.67377	679.72693							
1235	10.283	1144.51392	416.96613	241.37711	1621.66797	335.68161	691.07178							
1236	10.292	1144.84216	422.59952	233.96526	1622.92578	343.77524	701.65570							
1237	10.300	1145.34814	428.65298	227.38519	1623.98218	351.29300	711.86011							
1238	10.308	1144.61084	432.95886	222.48653	1625.15417	359.54163	721.05054							
1239	10.317	1143.17151	436.82495	218.61464	1626.47168	367.97711	729.80023							
1240	10.325	1142.27124	440.63718	215.53928	1627.84729	376.84238	737.00549							
1241	10.333	1140.51978	442.56982	213.92148	1629.27258	385.68439	746.52264							
1242	10.342	1138.30920	443.65961	213.42067	1630.19958	393.33655	752.57416							
1243	10.350	1136.05444	443.84146	214.00783	1631.22644	400.58026	757.79987							
1244	10.358	1133.52100	443.05231	215.31920	1632.23120	407.60461	762.57257							
1245	10.367	1130.87061	440.90268	217.86324	1633.13135	414.27606	766.18927							
1246	10.375	1128.63196	439.29681	220.09746	1634.10303	420.20547	769.22723							
1247	10.383	1126.20691	436.30005	223.36884	1635.06934	425.57153	771.66858							
1248	10.392	1123.60156	432.58597	227.32004	1636.01257	430.24048	773.20764							
1249	10.400	1121.37170	428.32181	231.66234	1636.85437	433.93716	774.05206							
1250	10.408	1119.25256	423.37341	236.50174	1637.74976	436.80206	774.80499							
1251	10.417	1117.32031	418.01300	241.92729	1638.62854	438.74100	774.39783							
1252	10.425	1115.32373	412.14743	247.62823	1639.40698	439.47626	773.10626							
1253	10.433	1113.53503	405.83282	253.73111	1639.95142	439.20743	771.40338							
1254	10.442	1111.88708	399.12540	259.08466	1640.51208	437.97623	769.10986							
1255	10.450	1109.83667	391.68826	269.35614	1640.81763	435.59607	765.29297							
1256	10.458	1107.96704	384.36945	276.68393	1640.94592	432.23206	761.12268							
1257	10.467	1106.11316	376.56729	285.04910	1641.78003	428.27475	755.99841							
1258	10.475	1104.49500	368.78366	293.51126	1641.43774	423.00156	749.99054							
1259	10.483	1102.64490	360.78842	302.50790	1641.04419	417.40082	743.79437							
1260	10.492	1100.68213	352.87509	312.20425	1640.22522	410.98721	736.03400							
1261	10.500	1098.80920	345.25507	322.80869	1639.18469	404.17209	727.58533							
1262	10.508	1097.03589	338.01477	333.46207	1637.81848	397.19974	718.29889							
1263	10.517	1095.25647	331.11639	345.61771	1636.26208	389.99728	708.38306							
1264	10.525	1093.38147	324.69287	357.03427	1634.09839	382.77463	697.53375							
1265	10.533	1091.56519	318.86804	369.52191	1631.47144	375.61920	685.43567							
1266	10.542	1089.42273	313.46075	382.61389	1628.68750	368.49911	672.81213							
1267	10.550	1087.54688	308.99615	395.03149	1625.34802	361.76013	658.72003							
1268	10.558	1085.41711	304.92685	407.17972	1621.66565	355.33694	643.84662							
1269	10.567	1083.18896	302.21545	420.72968	1617.72925	349.35782	628.55798							
1270	10.575	1081.15857	299.43054	433.11688	1614.14453	343.40646	613.62683							
1271	10.583	1078.90381	297.56207	445.36041	1608.95728	339.14087	595.36450							
1272	10.592	1076.79199	296.27283	456.29535	1604.97314	334.88812	578.82196							
1273	10.600	1074.72241	295.39072	467.68369	1599.53088	332.27734	559.96722							
1274	10.608	1072.62720	294.84979	478.79889	1594.66797	329.84863	542.32062							
1275	10.617	1070.57178	294.73373	489.29279	1588.79004	329.06494	519.64136							
1276	10.625	1068.54382	295.22989	499.44415	1584.57227	328.28223	502.25626							
1277	10.633	1065.81567	295.26752	509.40982	1577.70129	329.90735	481.09119							
1278	10.642	1064.01990	296.23352	518.07971	1572.26257	331.55542	460.73145							
1279	10.650	1062.22375	297.49094	526.20300	1566.80920	334.23810	441.93341							
1280	10.658	1060.12109	298.57553	533.73376	1561.21533	338.19400	422.75912							
1281	10.667	1058.04187	299.85165	540.64886	1556.01196	342.48920	404.23505							
1282	10.675	1056.13440	300.87878	546.60657	1550.73914	347.49655	386.24509							
1283	10.683	1054.01416	301.96167	553.94830	1545.85132	353.22565	368.62787							
1284	10.692	1051.85107	303.09650	559.96539	1541.16895	359.35568	351.92880							
1285	10.700	1049.97864	303.37186	566.85748	1536.78174	365.45581	335.47641							
1286	10.708	1047.80762	305.42856	569.37549	1532.21680	372.35278	320.19672							
1287	10.717	1046.01355	306.79721	573.60236	1528.25586	378.88168	305.75418							
1288	10.725	1044.20667	308.07297	577.55017	1524.43628	385.22568	292.16006							
1289	10.733	1042.58081	309.92685	580.86194	1521.03528	391.59067	279.40585							
1290	10.742	1041.09741	311.58005	583.60748	1518.20154	397.73398	267.88229							
1291	10.750	1039.96045	313.77762	585.53546	1515.66345	403.27066	257.29892							
1292	10.758	1039.01624	315.62204	587.06464	1513.29724	408.26053	247.73289							
1293	10.767	1038.26025	317.52948	588.22461	1511.50378	412.75314	239.41780							
1294	10.775	1037.72449	319.42050	588.08557	1510.26306	416.46164	232.47186							
1295	10.783	1037.51379	321.03619	587.51129	1509.55908	419.37106	226.90567							
1296	10.792	1037.62903	322.54712	585.94421	1509.07495	421.28171	222.50232							
1297	10.800	1038.16528	323.72409	583.70532	1509.33313	422.11041	219.23259							
1298	10.808	1038.92993	324.65640	580.53387	1509.76526	421.78992	217.53940							
1299	10.817	1039.96106	325.17130	576.75293	1510.87122	420.55447	216.93993							
1300	10.825	1041.47131	325.42975	571.64996	1512.61365	418.10126	217.57220							
1301	10.833	1043.08167	325.80591	566.30121	1514.92505	414.34067	219.40895							
1302	10.842	1045.24451	325.78027	559.91046	1516.98682	410.13657	222.45906							
1303	10.850	1047.53638	325.47037	552.79669	1519.76233	404.82159	226.56165							
1304	10.858	1050.18152	325.09824	545.05945	1522.73157	398.60507	231.72101							
1305	10.867	1053.24146	325.73849	534.32214	1526.17676	391.65213	237.96523							
1306	10.875	1056.36926	325.55945	524.36115	1529.69946	384.19022	245.36893							
1307	10.883	1059.51514	325.40067	511.61230	1533.76843	376.47537	254.05447							
1308	10.892	1063.10315	326.02905	501.68091	1537.70300	368.10428	263.53091							
1309	10.900	1066.58472	326.61633	489.64868	1541.85962	359.62933	273.80240							
1310	10.908	1070.03430	327.49692	477.07257	1546.20435	351.05566	284.99316							
1311	10.917	1073.66602	328.77304	463.84671	1550.88611	342.02930	297.39517							
1312	10.925	1077.43518	330.10812	451.78925	1555.15466	333.98770	310.76080							
1313	10.933	1080.98364	332.30908	437.70093	1559.77588	325.72534	324.89279							
1314	10.942	1084.49878	334.93652	423.84561	1564.38867	317.97815	340.37076							
1315	10.950	1088.16028	337.61420	408.43726	1568.83679	310.56189	356.76077							
1316	10.958	1091.61328	341.11078	395.12622	1573.30322	303.71765	373.96396							
1317	10.967	1094.83862	345.34744	380.90329	1577.79321	297.55496	391.50888							
1318	10.975	1097.95935	350.03149	366.98737	1581.61035	292.73456	410.39035							
1319	10.983	1100.64807	355.04556	353.13531	1585.40002	289.05511	428.18140							
1320	10.992	1103.24939	360.80707	339.68607	1588.63147	286.52179	447.84525							
1321	11.000	1105.54883	366.83215	326.67398	1591.58521	284.23502	467.63541							
1322	11.008	1107.30078	372.78625	315.01886	1594.90198	284.64325	486.37274							
1323	11.017	1108.93262	379.39011	303.05737	1597.56750	285.49445	505.00171							
1324	11.025	1110.20178	386.09976	292.06183	1600.00476	287.24982	523.85834							
1325	11.033	1111.22473	392.94672	281.32159	1602.29358	290.18225	542.04156							
1326	11.042	1111.78442	399.83389	271.91864	1604.29309	293.90860	559.67194							
1327	11.050	1112.24219	406.82498	262.84406	1606.14209	298.45392	576.71649							
1328	11.058	1112.42749	414.03687	252.84125	1607.79333	303.74966	593.04004							
1329	11.067	1112.20129	420.72055	245.28178	1609.31873	309.85956	608.15833							
1330	11.075	1111.68103	427.12350	238.64532	1610.79187	316.35776	623.22845							
1331	11.083	1111.04053	433.19434	232.63342	1612.77502	323.76547	639.17438							
1332	11.092	1110.08313	439.00934	227.30666	1613.44214	330.97955	652.63824							
1333	11.100	1108.98145	443.81598	223.06673	1614.79761	338.41971	665.37726							
1334	11.108	1107.78137	449.38339	218.66310	1615.86353	346.32608	676.93500							
1335	11.117	1106.39563	453.82599	215.25246	1616.84827	353.92477	687.48389							
1336	11.125	1105.07532	457.82602	212.26047	1617.48193	360.86005	694.85730							
1337	11.133	1103.62781	461.28555	209.81029	1618.38599	368.27521	703.50952							
1338	11.142	1102.01855	464.17825	207.82231	1619.03809	375.01199	710.90741							
1339	11.150	1100.67529	466.65070	206.19283	1619.52551	381.20596	717.76080							
1340	11.158	1099.07947	468.39410	204.95932	1619.91174	386.77490	723.77496							
1341	11.167	1097.51563	469.55814	204.21413	1620.40271	391.68433	728.73206							
1342	11.175	1096.08752	470.04749	203.84543	1620.87317	395.90079	732.69135							
1343	11.183	1094.55090	469.71667	203.85596	1621.39990	399.26987	735.82709							
1344	11.192	1093.09302	468.62354	204.43382	1621.85193	401.70209	738.15814							
1345	11.200	1091.48169	466.18256	205.87311	1622.14563	403.30545	739.26910							
1346	11.208	1090.39722	464.04413	207.35909	1622.43457	404.15839	740.12415							
1347	11.217	1089.13391	460.41452	209.67262	1622.70923	404.20868	740.17023							
1348	11.225	1088.01819	455.92917	212.79404	1622.82458	403.34052	739.14404							
1349	11.233	1086.98926	450.76840	216.48302	1622.92456	401.93011	737.59418							
1350	11.242	1085.95972	444.79929	221.01091	1623.00452	399.50027	735.27051							
1351	11.250	1084.89246	438.07538	226.17577	1622.46167	397.27795	731.66962							
1352	11.258	1083.84705	430.77200	232.10599	1621.80969	393.93976	727.26678							
1353	11.267	1082.99707	422.83099	238.83340	1620.98645	389.79919	721.69891							
1354	11.275	1082.20935	414.47488	246.10440	1620.00781	385.14798	714.81110							
1355	11.283	1081.54700	405.92203	254.24834	1618.99683	379.93619	707.41425							
1356	11.292	1081.07568	397.32034	260.85721	1617.76709	374.32819	698.31506							
1357	11.300	1080.49158	388.00040	274.48169	1616.13757	368.19284	688.53699							
1358	11.308	1080.05713	378.23947	285.71353	1614.53040	361.97778	677.99335							
1359	11.317	1080.00610	370.40952	295.06622	1612.64136	355.64398	666.43896							
1360	11.325	1079.59387	361.04178	308.13840	1610.74023	349.29440	653.97247							
